<svg xmlns="http://www.w3.org/2000/svg" width="720" height="160" viewBox="0 0 720 160" fill="none" role="img" aria-label="Soma Promotora">
  <rect x="8" y="28" width="104" height="104" rx="28" fill="#be1c6a"/>
  <path d="M40 80c0-14 11-24 28-24 10 0 18 4 23 10l-12 10c-2-3-6-5-11-5-7 0-12 4-12 9s5 9 14 11c14 4 26 10 26 26 0 15-12 26-30 26-12 0-22-5-28-13l13-10c3 4 8 7 15 7 8 0 13-4 13-9 0-6-5-9-15-12-15-4-26-11-26-26z" fill="#ecf759"/>
  <text x="140" y="100" font-family="Sora, Manrope, Arial, sans-serif" font-size="52" font-weight="800" letter-spacing="-1" fill="#1a1a1a">Soma Promotora</text>
</svg>